<svg width="100" height="100" xmlns="http://www.w3.org/2000/svg" xml:space="preserve" enable-background="new 0 0 100 100" version="1.1">

 <g>
  <title>Layer 1</title>
  <path id="svg_1" d="m29.478,62.678c0,-1.568 -1.275,-2.843 -2.843,-2.843l-14.26,0c-1.568,0 -2.843,1.275 -2.843,2.843l0,28.358c0,1.568 1.275,2.843 2.843,2.843l14.26,0c1.568,0 2.843,-1.275 2.843,-2.843l0,-4.231l2.836,0l0,-2.109l-2.836,0l0,-22.018zm-2.109,28.357c0,0.404 -0.329,0.734 -0.734,0.734l-14.26,0c-0.404,0 -0.734,-0.329 -0.734,-0.734l0,-28.357c0,-0.404 0.329,-0.734 0.734,-0.734l14.26,0c0.404,0 0.734,0.329 0.734,0.734l0,28.357zm-1.983,-25.003l-11.777,0l0,-2.109l11.777,0l0,2.109zm-11.777,18.663l11.781,0l0,2.109l-11.781,0l0,-2.109zm7.006,4.585c0,0.731 -0.593,1.324 -1.324,1.324c-0.731,0 -1.324,-0.593 -1.324,-1.324c0,-0.731 0.593,-1.324 1.324,-1.324c0.731,0 1.324,0.593 1.324,1.324zm15.852,-49.489l0,2.109l-27.243,0l0,-31.56l55.252,0l0,23.256l-2.109,0l0,-21.145l-51.033,0l0,27.341l25.133,0l0,-0.001zm44.966,-15.992l-1.055,0l0,-2.109l3.164,0l0,3.164l-2.109,0l0,-1.055zm0,59.841l2.109,0l0,3.164l-3.164,0l0,-2.109l1.055,0l0,-1.055zm-9.793,1.055l4.369,0l0,2.109l-4.369,0l0,-2.109zm-8.739,0l4.369,0l0,2.109l-4.369,0l0,-2.109zm-17.478,0l4.369,0l0,2.109l-4.369,0l0,-2.109zm8.739,0l4.369,0l0,2.109l-4.369,0l0,-2.109zm-17.478,0l4.369,0l0,2.109l-4.369,0l0,-2.109zm-20.966,-31.297l0,4.369l-2.109,0l0,-4.369l2.109,0zm60.275,-29.599l-4.369,0l0,-2.109l4.369,0l0,2.109zm5.44,5.429l2.109,0l0,4.369l-2.109,0l0,-4.369zm0,45.62l2.109,0l0,4.369l-2.109,0l0,-4.369zm10.68,-8.798l0,-24.404c0,-2.748 -2.236,-4.984 -4.984,-4.984l-18.437,0l0,-30.54l-63.692,0l0,40.007l8.609,0l0,2.9l2.109,0l0,-2.9l11.446,0l0,5.752l-4.999,0l0,5.898l22.719,0l0,8.272l-2.819,0l0,2.712c0,2.529 2.058,4.587 4.587,4.587l43.761,0c2.529,0 4.587,-2.058 4.587,-4.587l0,-2.713l-2.887,0zm-85.004,-57.819l59.473,0l0,28.431l-16.714,0c-2.748,0 -4.984,2.236 -4.984,4.984l0,2.373l-37.775,0l0,-35.788zm22.165,37.898l15.611,0l0,5.752l-15.611,0l0,-5.752zm-4.999,9.54l0,-1.679l20.61,0l0,1.679l-20.61,0zm22.719,-14.023c0,-1.585 1.29,-2.875 2.875,-2.875l37.261,0c1.585,0 2.875,1.29 2.875,2.875l0,24.404l-2.111,0l0,-23.641c0,-0.859 -0.699,-1.558 -1.558,-1.558l-35.67,0c-0.859,0 -1.558,0.699 -1.558,1.558l0,23.641l-2.114,0l0,-24.404zm38.789,24.404l-12.611,0l-1.666,1.059l-5.973,0l-1.636,-1.059l-12.68,0l0,-23.09l34.566,0l0,23.09zm7.108,2.712c0,1.366 -1.112,2.478 -2.478,2.478l-43.761,0c-1.366,0 -2.478,-1.112 -2.478,-2.478l0,-0.602l19.1,0l1.636,1.059l7.21,0l1.666,-1.059l19.105,0l0,0.602z"/>
  <text id="svg_2" font-family="'Helvetica Neue', Helvetica, Arial-Unicode, Arial, Sans-serif" font-weight="bold" font-size="5px" fill="#000000" y="115" x="0">Created by Laymik</text>
  <text id="svg_3" font-family="'Helvetica Neue', Helvetica, Arial-Unicode, Arial, Sans-serif" font-weight="bold" font-size="5px" fill="#000000" y="120" x="0">from the Noun Project</text>
 </g>
</svg>