<svg width="150" height="100" xmlns="http://www.w3.org/2000/svg">
 <g>
  <title>Layer 1</title>
  <line fill="none" stroke="#000" x1="243" y1="283.5" x2="271" y2="260.5" id="svg_3"/>
  <rect fill="#fff" stroke="#000" x="38.14286" y="238.07143" width="24" height="45" id="svg_8"/>
  <rect fill="#fff" stroke="#000" x="88.42857" y="238.64285" width="24" height="45" id="svg_10"/>
  <rect fill="#fff" stroke="#000" x="149" y="238.64285" width="24" height="45" id="svg_11"/>
  <rect stroke="#000" stroke-width="3" id="svg_1" height="98.30445" width="147.41921" y="0.79625" x="1.31148" fill="#fff"/>
  <g stroke="null">
   <g stroke="null">
    <path stroke="null" fill="#010002" d="m112.10729,35.551l-15.74362,0l0,-2.4837l15.74362,0l0,2.4837zm0,1.6197l-15.74362,0l0,2.48862l15.74362,0l0,-2.48862zm-0.00964,-11.26649l-15.71952,0l0,5.47201l15.71952,0l0,-5.47201zm5.02938,-5.88309l0,58.65123c-0.00241,0.87877 -0.70368,1.59508 -1.56641,1.59508l-22.64546,0c-0.86514,0 -1.564,-0.71631 -1.564,-1.59754l0,-58.64876c0,-0.88123 0.69886,-1.6 1.564,-1.6l22.64546,0c0.86514,0 1.56641,0.71877 1.56641,1.6zm-3.13041,1.59262l-19.51987,0l0,55.4586l19.51987,0l0,-55.4586zm-1.88933,19.66282l-15.74362,0l0,2.48124l15.74362,0l0,-2.48124zm-2.56168,18.50589c0,2.86031 -2.26286,5.16678 -5.05348,5.16678c-2.79544,0 -5.0583,-2.30893 -5.0583,-5.16678c0,-2.85047 2.26527,-5.16432 5.0583,-5.16432c2.79062,0 5.05348,2.31631 5.05348,5.16432zm-1.82426,0c0,-1.81908 -1.44592,-3.30093 -3.23162,-3.30093c-1.78812,0 -3.23403,1.47939 -3.23403,3.30093s1.44592,3.29847 3.23403,3.29847c1.78571,0 3.23162,-1.47693 3.23162,-3.29847zm-20.67179,-30.10961l0,33.24316c0,2.0037 -1.57846,3.62586 -3.52081,3.62586l-17.58234,0c0,0 -0.99768,7.25663 5.33061,7.25663l0,3.63078l-5.33061,0l-10.6564,0l-5.33061,0l0,-3.62586c6.09454,0 5.33061,-7.25663 5.33061,-7.25663l-17.57511,0c-1.94958,0 -3.53045,-1.62216 -3.53045,-3.62586l0,-33.24808c0,-2.0037 1.58087,-3.61847 3.53045,-3.61847l45.81145,0c1.94476,0 3.52322,1.61477 3.52322,3.61847zm-23.14671,32.43331c0,-1.71816 -1.36398,-3.10893 -3.04606,-3.10893c-1.68449,0 -3.05088,1.39077 -3.05088,3.10893s1.36398,3.11385 3.05088,3.11385c1.68449,0 3.04606,-1.3957 3.04606,-3.11385zm19.37287,-32.20439l-45.31261,0l0,28.02961l45.3102,0l0.00241,0c0,0 0,-28.02961 0,-28.02961zm-22.38761,30.25731c-1.04588,0 -1.89174,0.86646 -1.89174,1.93231s0.84827,1.93231 1.89174,1.93231s1.89174,-0.86646 1.89174,-1.93231s-0.84586,-1.93231 -1.89174,-1.93231z"/>
   </g>
  </g>
 </g>

</svg>