<?xml version="1.0" encoding="iso-8859-1"?>
<!-- Uploaded to: SVG Repo, www.svgrepo.com, Generator: SVG Repo Mixer Tools -->
<svg fill="#000000" height="800px" width="800px" version="1.1" id="Layer_1" xmlns="http://www.w3.org/2000/svg" xmlns:xlink="http://www.w3.org/1999/xlink" 
	 viewBox="0 0 334.73 334.73" xml:space="preserve">
<g>
	<g>
		<g>
			<path d="M309.73,100.284h-40.865v-9.586c0-2.762-2.238-5-5-5h-25c-2.762,0-5,2.238-5,5v9.586h-9.251v-9.586c0-2.762-2.238-5-5-5
				h-25c-2.762,0-5,2.238-5,5v9.586H25c-13.785,0-25,11.215-25,25v78.11c0,12.073,8.603,22.174,20,24.497v16.141
				c0,2.762,2.238,5,5,5h60.365c2.762,0,5-2.238,5-5v-15.638h154v15.638c0,2.762,2.238,5,5,5h60.365c2.762,0,5-2.238,5-5v-16.141
				c11.397-2.323,20-12.424,20-24.497v-78.11C334.73,111.499,323.516,100.284,309.73,100.284z M243.865,95.698h15v4.586h-15V95.698z
				 M199.614,95.698h15v4.586h-15V95.698z M80.365,239.032H30v-10.638h50.365V239.032z M304.73,239.032h-50.365v-10.638h50.365
				V239.032z M309.73,218.395c-5.129,0-273.273,0-284.73,0c-8.271,0-15-6.729-15-15v-78.11c0-8.271,6.729-15,15-15h169.614h25
				h19.251h25h45.865c8.271,0,15,6.729,15,15v78.11h0C324.73,211.666,318.001,218.395,309.73,218.395z"/>
			<path d="M263.865,117.84c-25.641,0-46.5,20.859-46.5,46.5c0,25.641,20.859,46.5,46.5,46.5s46.5-20.859,46.5-46.5
				C310.365,138.699,289.506,117.84,263.865,117.84z M263.865,200.84c-20.126,0-36.5-16.374-36.5-36.5
				c0-20.126,16.374-36.5,36.5-36.5c20.126,0,36.5,16.374,36.5,36.5C300.365,184.466,283.991,200.84,263.865,200.84z"/>
			<path d="M263.865,135.591c-15.853,0-28.749,12.896-28.749,28.749c0,15.853,12.896,28.749,28.749,28.749
				c15.853,0,28.749-12.896,28.749-28.749C292.614,148.487,279.718,135.591,263.865,135.591z M263.865,183.089
				c-10.338,0-18.749-8.411-18.749-18.749c0-10.338,8.411-18.749,18.749-18.749s18.749,8.411,18.749,18.749
				C282.614,174.678,274.203,183.089,263.865,183.089z"/>
			<path d="M84.365,140.09h-52c-2.762,0-5,2.238-5,5c0,2.762,2.238,5,5,5h52c2.762,0,5-2.238,5-5
				C89.365,142.328,87.127,140.09,84.365,140.09z"/>
			<path d="M113.698,140.09h-13.333c-2.762,0-5,2.238-5,5c0,2.762,2.238,5,5,5h13.333c2.762,0,5-2.238,5-5
				C118.698,142.328,116.46,140.09,113.698,140.09z"/>
			<path d="M84.365,159.34h-52c-2.762,0-5,2.238-5,5c0,2.762,2.238,5,5,5h52c2.762,0,5-2.238,5-5
				C89.365,161.578,87.127,159.34,84.365,159.34z"/>
			<path d="M113.698,159.34h-13.333c-2.762,0-5,2.238-5,5c0,2.762,2.238,5,5,5h13.333c2.762,0,5-2.238,5-5
				C118.698,161.578,116.46,159.34,113.698,159.34z"/>
			<path d="M84.365,178.59h-52c-2.762,0-5,2.238-5,5c0,2.762,2.238,5,5,5h52c2.762,0,5-2.238,5-5
				C89.365,180.828,87.127,178.59,84.365,178.59z"/>
			<path d="M113.698,178.59h-13.333c-2.762,0-5,2.238-5,5c0,2.762,2.238,5,5,5h13.333c2.762,0,5-2.238,5-5
				C118.698,180.828,116.46,178.59,113.698,178.59z"/>
		</g>
	</g>
</g>
</svg>